<svg width="320" height="123" viewBox="0 0 320 123" fill="none" xmlns="http://www.w3.org/2000/svg">
<path d="M86.7515 48.2388C80.9664 48.2388 75.5271 50.8657 71.1871 55.6177C66.8592 50.817 61.4831 48.2388 55.5937 48.2388C45.3106 48.2388 36.2267 56.2168 33.5039 67.6392C32.0771 73.6226 31.7787 83.1463 38.4552 94.5343C44.4186 104.705 54.6612 114.074 68.898 122.381C69.606 122.794 70.3868 123 71.1688 123C71.9496 123 72.7316 122.794 73.439 122.381C87.6802 114.075 97.926 104.706 103.892 94.5349C110.572 83.147 110.274 73.6239 108.848 67.6406C106.124 56.2168 97.0378 48.2388 86.7515 48.2388ZM71.1682 112.121C40.0476 93.1015 41.4738 75.2535 42.6921 70.1451C44.3168 63.3287 49.7428 58.3812 55.593 58.3812C60.0436 58.3812 64.1351 61.2779 67.1121 66.5378C67.9706 68.0551 69.5087 68.9821 71.1675 68.9828C71.1675 68.9828 71.1675 68.9828 71.1682 68.9828C72.8264 68.9828 74.3645 68.0564 75.223 66.5398C78.2038 61.2786 82.2971 58.3812 86.7509 58.3812C92.6049 58.3812 98.0328 63.3287 99.6576 70.1451C100.876 75.2528 102.299 93.1001 71.1682 112.121Z" fill="#F67A7B"/>
<path d="M50.7189 39.544C60.9122 39.544 69.2052 30.6748 69.2052 19.773C69.2052 8.8699 60.9122 0 50.7189 0C40.5249 0 32.2313 8.87058 32.2313 19.773C32.2313 30.6748 40.5249 39.544 50.7189 39.544ZM50.7189 10.1424C55.6841 10.1424 59.7225 14.4631 59.7225 19.773C59.7225 25.0822 55.6834 29.4016 50.7189 29.4016C45.7537 29.4016 41.7141 25.0822 41.7141 19.773C41.7141 14.4624 45.7531 10.1424 50.7189 10.1424Z" fill="#D16364"/>
<path d="M91.6321 39.544C101.825 39.544 110.118 30.6748 110.118 19.773C110.118 8.8699 101.825 0 91.6321 0C81.4387 0 73.1457 8.87058 73.1457 19.773C73.1451 30.6748 81.4381 39.544 91.6321 39.544ZM91.6321 10.1424C96.5966 10.1424 100.636 14.4631 100.636 19.773C100.636 25.0822 96.5966 29.4016 91.6321 29.4016C86.6669 29.4016 82.6285 25.0822 82.6285 19.773C82.6279 14.4624 86.6669 10.1424 91.6321 10.1424Z" fill="#D16364"/>
<path d="M17.4585 29.981C8.02373 29.981 0.347748 38.1917 0.347748 48.2841C0.347748 58.3751 8.02373 66.5844 17.4585 66.5844C26.8944 66.5844 34.5704 58.3745 34.5704 48.2841C34.571 38.1917 26.8944 29.981 17.4585 29.981ZM17.4585 56.442C13.2525 56.442 9.83051 52.7826 9.83051 48.2841C9.83051 43.7849 13.2525 40.1242 17.4585 40.1242C21.665 40.1242 25.0877 43.7849 25.0877 48.2841C25.0883 52.7826 21.6656 56.442 17.4585 56.442Z" fill="#D16364"/>
<path d="M124.888 29.981C115.453 29.981 107.777 38.1917 107.777 48.2834C107.777 58.3745 115.453 66.5837 124.888 66.5837C134.324 66.5837 142 58.3738 142 48.2834C142 38.1917 134.324 29.981 124.888 29.981ZM124.888 56.442C120.682 56.442 117.26 52.7819 117.26 48.2841C117.26 43.7849 120.682 40.1242 124.888 40.1242C129.095 40.1242 132.517 43.7849 132.517 48.2841C132.517 52.7826 129.095 56.442 124.888 56.442Z" fill="#D16364"/>
<path d="M173.45 13.5V30H168.375V24.275L168.45 18.725H168.375L165.175 30H160.525L157.375 18.725H157.275L157.35 24.275V30H152.25V13.5H160.4L162.3 20.825L163.025 23.9H163.075L163.8 20.825L165.7 13.5H173.45ZM182.356 30.25C180.856 30.25 179.573 30 178.506 29.5C177.439 28.9833 176.623 28.2417 176.056 27.275C175.489 26.3083 175.206 25.1333 175.206 23.75C175.206 22.3667 175.489 21.1917 176.056 20.225C176.639 19.2583 177.448 18.525 178.481 18.025C179.531 17.5083 180.748 17.25 182.131 17.25C183.548 17.25 184.748 17.5083 185.731 18.025C186.731 18.525 187.489 19.2333 188.006 20.15C188.523 21.0667 188.781 22.1333 188.781 23.35C188.781 23.6167 188.764 23.8917 188.731 24.175C188.714 24.4583 188.689 24.6833 188.656 24.85H178.906V22.725H186.156L183.431 23.8C183.431 22.9 183.348 22.2167 183.181 21.75C183.031 21.2833 182.689 21.05 182.156 21.05C181.806 21.05 181.514 21.1333 181.281 21.3C181.064 21.4667 180.906 21.7583 180.806 22.175C180.706 22.575 180.656 23.1333 180.656 23.85C180.656 24.5667 180.723 25.1167 180.856 25.5C180.989 25.8667 181.181 26.1167 181.431 26.25C181.698 26.3667 182.031 26.425 182.431 26.425C182.864 26.425 183.198 26.3333 183.431 26.15C183.681 25.95 183.848 25.6833 183.931 25.35L188.556 26.6C188.373 27.4167 187.964 28.1 187.331 28.65C186.698 29.1833 185.939 29.5833 185.056 29.85C184.189 30.1167 183.289 30.25 182.356 30.25ZM194.208 30.25C193.341 30.25 192.608 30.1083 192.008 29.825C191.408 29.525 190.95 29.0583 190.633 28.425C190.316 27.7917 190.158 26.9667 190.158 25.95V17.5H195.908V24.625C195.908 25.1083 195.983 25.4583 196.133 25.675C196.3 25.8917 196.541 26 196.858 26C197.041 26 197.2 25.9667 197.333 25.9C197.483 25.8167 197.6 25.7 197.683 25.55C197.783 25.4 197.858 25.2083 197.908 24.975C197.958 24.725 197.983 24.4417 197.983 24.125V17.5H203.733V30H198.558L198.433 27.35C198.066 28.3167 197.525 29.0417 196.808 29.525C196.108 30.0083 195.241 30.25 194.208 30.25ZM215.311 30.25C214.578 30.25 213.903 30.0833 213.286 29.75C212.686 29.4 212.211 28.8833 211.861 28.2C211.511 27.5 211.336 26.6167 211.336 25.55C211.336 24.5667 211.469 23.5833 211.736 22.6C212.003 21.6167 212.394 20.725 212.911 19.925C213.428 19.1083 214.061 18.4583 214.811 17.975C215.561 17.4917 216.419 17.25 217.386 17.25C217.819 17.25 218.261 17.3333 218.711 17.5C219.161 17.6667 219.561 17.95 219.911 18.35C220.261 18.7333 220.494 19.2833 220.611 20L221.186 17.5H226.936L224.036 30H218.786L219.211 27.625C218.794 28.4417 218.244 29.0833 217.561 29.55C216.894 30.0167 216.144 30.25 215.311 30.25ZM218.061 26.2C218.361 26.2 218.628 26.0833 218.861 25.85C219.094 25.6 219.286 25.2833 219.436 24.9C219.603 24.5167 219.719 24.125 219.786 23.725C219.869 23.3083 219.911 22.9417 219.911 22.625C219.911 22.3417 219.869 22.1083 219.786 21.925C219.719 21.725 219.611 21.575 219.461 21.475C219.328 21.375 219.153 21.325 218.936 21.325C218.586 21.325 218.286 21.4583 218.036 21.725C217.803 21.975 217.611 22.2917 217.461 22.675C217.311 23.0417 217.194 23.425 217.111 23.825C217.044 24.2083 217.011 24.525 217.011 24.775C217.011 25.0583 217.044 25.3083 217.111 25.525C217.194 25.7417 217.311 25.9083 217.461 26.025C217.611 26.1417 217.811 26.2 218.061 26.2ZM230.79 30.25C230.056 30.25 229.381 30.0833 228.765 29.75C228.165 29.4 227.69 28.8833 227.34 28.2C226.99 27.5 226.815 26.6167 226.815 25.55C226.815 24.5667 226.948 23.5833 227.215 22.6C227.481 21.6167 227.873 20.725 228.39 19.925C228.906 19.1083 229.54 18.4583 230.29 17.975C231.04 17.4917 231.898 17.25 232.865 17.25C233.298 17.25 233.74 17.3333 234.19 17.5C234.64 17.6667 235.04 17.95 235.39 18.35C235.74 18.7333 235.973 19.2833 236.09 20L237.815 12.5H243.565L239.515 30H234.265L234.69 27.625C234.273 28.4417 233.723 29.0833 233.04 29.55C232.373 30.0167 231.623 30.25 230.79 30.25ZM233.54 26.2C233.84 26.2 234.106 26.0833 234.34 25.85C234.573 25.6 234.765 25.2833 234.915 24.9C235.081 24.5167 235.198 24.125 235.265 23.725C235.348 23.3083 235.39 22.9417 235.39 22.625C235.39 22.3417 235.348 22.1083 235.265 21.925C235.198 21.725 235.09 21.575 234.94 21.475C234.806 21.375 234.631 21.325 234.415 21.325C234.065 21.325 233.765 21.4583 233.515 21.725C233.281 21.975 233.09 22.2917 232.94 22.675C232.79 23.0417 232.673 23.425 232.59 23.825C232.523 24.2083 232.49 24.525 232.49 24.775C232.49 25.0583 232.523 25.3083 232.59 25.525C232.673 25.7417 232.79 25.9083 232.94 26.025C233.09 26.1417 233.29 26.2 233.54 26.2ZM248.918 30.25C247.601 30.25 246.451 30.0083 245.468 29.525C244.501 29.0417 243.743 28.375 243.193 27.525C242.66 26.6583 242.393 25.6667 242.393 24.55C242.393 23.25 242.676 22.05 243.243 20.95C243.81 19.8333 244.651 18.9417 245.768 18.275C246.901 17.5917 248.31 17.25 249.993 17.25C251.31 17.25 252.451 17.4917 253.418 17.975C254.401 18.4583 255.16 19.1333 255.693 20C256.243 20.85 256.518 21.8333 256.518 22.95C256.518 24.2333 256.235 25.4333 255.668 26.55C255.101 27.6667 254.251 28.5667 253.118 29.25C252.001 29.9167 250.601 30.25 248.918 30.25ZM248.968 26.4C249.285 26.4 249.56 26.2583 249.793 25.975C250.043 25.6917 250.251 25.3333 250.418 24.9C250.585 24.45 250.71 24 250.793 23.55C250.876 23.0833 250.918 22.675 250.918 22.325C250.918 22.0083 250.868 21.7667 250.768 21.6C250.685 21.4167 250.568 21.2917 250.418 21.225C250.268 21.1417 250.101 21.1 249.918 21.1C249.601 21.1 249.318 21.2417 249.068 21.525C248.835 21.8083 248.635 22.175 248.468 22.625C248.301 23.0583 248.176 23.5083 248.093 23.975C248.01 24.425 247.968 24.825 247.968 25.175C247.968 25.475 248.01 25.7167 248.093 25.9C248.193 26.0833 248.318 26.2167 248.468 26.3C248.618 26.3667 248.785 26.4 248.968 26.4ZM256.482 30L259.382 17.5H264.557L263.482 23.15L263.357 22.575C263.623 21.525 263.965 20.6 264.382 19.8C264.798 19 265.332 18.375 265.982 17.925C266.648 17.475 267.457 17.25 268.407 17.25C268.69 17.25 268.923 17.275 269.107 17.325C269.29 17.3583 269.44 17.4083 269.557 17.475L268.232 22.175C268.065 22.0917 267.865 22.025 267.632 21.975C267.398 21.925 267.09 21.9 266.707 21.9C266.257 21.9 265.807 22 265.357 22.2C264.923 22.3833 264.532 22.6917 264.182 23.125C263.848 23.5583 263.59 24.15 263.407 24.9L262.232 30H256.482ZM272.513 30.25C271.78 30.25 271.105 30.0833 270.488 29.75C269.888 29.4 269.413 28.8833 269.063 28.2C268.713 27.5 268.538 26.6167 268.538 25.55C268.538 24.5667 268.671 23.5833 268.938 22.6C269.205 21.6167 269.596 20.725 270.113 19.925C270.63 19.1083 271.263 18.4583 272.013 17.975C272.763 17.4917 273.621 17.25 274.588 17.25C275.021 17.25 275.463 17.3333 275.913 17.5C276.363 17.6667 276.763 17.95 277.113 18.35C277.463 18.7333 277.696 19.2833 277.813 20L278.388 17.5H284.138L281.238 30H275.988L276.413 27.625C275.996 28.4417 275.446 29.0833 274.763 29.55C274.096 30.0167 273.346 30.25 272.513 30.25ZM275.263 26.2C275.563 26.2 275.83 26.0833 276.063 25.85C276.296 25.6 276.488 25.2833 276.638 24.9C276.805 24.5167 276.921 24.125 276.988 23.725C277.071 23.3083 277.113 22.9417 277.113 22.625C277.113 22.3417 277.071 22.1083 276.988 21.925C276.921 21.725 276.813 21.575 276.663 21.475C276.53 21.375 276.355 21.325 276.138 21.325C275.788 21.325 275.488 21.4583 275.238 21.725C275.005 21.975 274.813 22.2917 274.663 22.675C274.513 23.0417 274.396 23.425 274.313 23.825C274.246 24.2083 274.213 24.525 274.213 24.775C274.213 25.0583 274.246 25.3083 274.313 25.525C274.396 25.7417 274.513 25.9083 274.663 26.025C274.813 26.1417 275.013 26.2 275.263 26.2ZM287.992 30.25C287.258 30.25 286.583 30.0833 285.967 29.75C285.367 29.4 284.892 28.8833 284.542 28.2C284.192 27.5 284.017 26.6167 284.017 25.55C284.017 24.5667 284.15 23.5833 284.417 22.6C284.683 21.6167 285.075 20.725 285.592 19.925C286.108 19.1083 286.742 18.4583 287.492 17.975C288.242 17.4917 289.1 17.25 290.067 17.25C290.5 17.25 290.942 17.3333 291.392 17.5C291.842 17.6667 292.242 17.95 292.592 18.35C292.942 18.7333 293.175 19.2833 293.292 20L295.017 12.5H300.767L296.717 30H291.467L291.892 27.625C291.475 28.4417 290.925 29.0833 290.242 29.55C289.575 30.0167 288.825 30.25 287.992 30.25ZM290.742 26.2C291.042 26.2 291.308 26.0833 291.542 25.85C291.775 25.6 291.967 25.2833 292.117 24.9C292.283 24.5167 292.4 24.125 292.467 23.725C292.55 23.3083 292.592 22.9417 292.592 22.625C292.592 22.3417 292.55 22.1083 292.467 21.925C292.4 21.725 292.292 21.575 292.142 21.475C292.008 21.375 291.833 21.325 291.617 21.325C291.267 21.325 290.967 21.4583 290.717 21.725C290.483 21.975 290.292 22.2917 290.142 22.675C289.992 23.0417 289.875 23.425 289.792 23.825C289.725 24.2083 289.692 24.525 289.692 24.775C289.692 25.0583 289.725 25.3083 289.792 25.525C289.875 25.7417 289.992 25.9083 290.142 26.025C290.292 26.1417 290.492 26.2 290.742 26.2ZM306.12 30.25C304.804 30.25 303.654 30.0083 302.67 29.525C301.704 29.0417 300.945 28.375 300.395 27.525C299.862 26.6583 299.595 25.6667 299.595 24.55C299.595 23.25 299.879 22.05 300.445 20.95C301.012 19.8333 301.854 18.9417 302.97 18.275C304.104 17.5917 305.512 17.25 307.195 17.25C308.512 17.25 309.654 17.4917 310.62 17.975C311.604 18.4583 312.362 19.1333 312.895 20C313.445 20.85 313.72 21.8333 313.72 22.95C313.72 24.2333 313.437 25.4333 312.87 26.55C312.304 27.6667 311.454 28.5667 310.32 29.25C309.204 29.9167 307.804 30.25 306.12 30.25ZM306.17 26.4C306.487 26.4 306.762 26.2583 306.995 25.975C307.245 25.6917 307.454 25.3333 307.62 24.9C307.787 24.45 307.912 24 307.995 23.55C308.079 23.0833 308.12 22.675 308.12 22.325C308.12 22.0083 308.07 21.7667 307.97 21.6C307.887 21.4167 307.77 21.2917 307.62 21.225C307.47 21.1417 307.304 21.1 307.12 21.1C306.804 21.1 306.52 21.2417 306.27 21.525C306.037 21.8083 305.837 22.175 305.67 22.625C305.504 23.0583 305.379 23.5083 305.295 23.975C305.212 24.425 305.17 24.825 305.17 25.175C305.17 25.475 305.212 25.7167 305.295 25.9C305.395 26.0833 305.52 26.2167 305.67 26.3C305.82 26.3667 305.987 26.4 306.17 26.4Z" fill="#222F3E"/>
<path d="M188 46C193.933 46 198.967 46.9 203.1 48.7C207.233 50.5 210.367 53.1333 212.5 56.6C214.633 60.0667 215.7 64.3 215.7 69.3C215.7 74.3 214.633 78.5333 212.5 82C210.367 85.4667 207.233 88.1 203.1 89.9C198.967 91.7 193.933 92.6 188 92.6H176.3V112H153V46H188ZM184.2 76.1C186.733 76.1 188.733 75.5667 190.2 74.5C191.667 73.3667 192.4 71.6333 192.4 69.3C192.4 66.9667 191.667 65.2667 190.2 64.2C188.733 63.0667 186.733 62.5 184.2 62.5H176.3V76.1H184.2ZM247.252 113C241.252 113 236.119 112 231.852 110C227.586 107.933 224.319 104.967 222.052 101.1C219.786 97.2333 218.652 92.5333 218.652 87C218.652 81.4667 219.786 76.7667 222.052 72.9C224.386 69.0333 227.619 66.1 231.752 64.1C235.952 62.0333 240.819 61 246.352 61C252.019 61 256.819 62.0333 260.752 64.1C264.752 66.1 267.786 68.9333 269.852 72.6C271.919 76.2667 272.952 80.5333 272.952 85.4C272.952 86.4667 272.886 87.5667 272.752 88.7C272.686 89.8333 272.586 90.7333 272.452 91.4H233.452V82.9H262.452L251.552 87.2C251.552 83.6 251.219 80.8667 250.552 79C249.952 77.1333 248.586 76.2 246.452 76.2C245.052 76.2 243.886 76.5333 242.952 77.2C242.086 77.8667 241.452 79.0333 241.052 80.7C240.652 82.3 240.452 84.5333 240.452 87.4C240.452 90.2667 240.719 92.4667 241.252 94C241.786 95.4667 242.552 96.4667 243.552 97C244.619 97.4667 245.952 97.7 247.552 97.7C249.286 97.7 250.619 97.3333 251.552 96.6C252.552 95.8 253.219 94.7333 253.552 93.4L272.052 98.4C271.319 101.667 269.686 104.4 267.152 106.6C264.619 108.733 261.586 110.333 258.052 111.4C254.586 112.467 250.986 113 247.252 113ZM305.66 45V91.6C305.66 93.8667 306.127 95.5 307.06 96.5C308.06 97.4333 309.594 97.9 311.66 97.9C312.994 97.9 314.16 97.8 315.16 97.6C316.16 97.4 317.094 97.0667 317.96 96.6L318.96 109.6C317.294 110.667 315.027 111.5 312.16 112.1C309.294 112.7 306.594 113 304.06 113C299.394 113 295.46 112.433 292.26 111.3C289.127 110.1 286.727 108.2 285.06 105.6C283.46 103 282.66 99.5333 282.66 95.2V51.4L305.66 45ZM318.26 62V77.5H274.96V62H318.26Z" fill="#3C4B5C"/>
</svg>
